<svg xmlns="http://www.w3.org/2000/svg" viewBox="0 0 116 96" role="img" aria-label="Outline of the state of Texas">
  <title>Texas</title>
  <path
    d="M29.8,5.4 L50.6,5.4 L50.6,20.9 L54.6,22.4 L57.8,23 L63.6,24.4 L68.6,26.2 L75.3,27.2 L81,26.4 L87.3,28.1 L91.4,29 L91.4,43 L93,49.4 L93.4,56.6 L92.9,59 L86.6,62.6 L82.8,66.6 L75.3,70.2 L70.8,73.4 L68.8,79 L68.4,86.2 L70.1,89.8 L62.2,86.6 L56.8,86.2 L54,77.4 L50.6,71 L46.1,64.6 L40,59.2 L34.3,59.1 L31.2,63.2 L28.1,65.4 L22.1,62.2 L18.5,56 L13.6,51 L8.1,45.7 L5.8,43.2 L5.2,41.4 L29.8,41.4 Z"
    fill="none"
    stroke="#B05C2E"
    stroke-width="1"
    stroke-linejoin="round"
    vector-effect="non-scaling-stroke"
  />
</svg>
